<svg width="50" height="50" viewBox="0 0 50 50" fill="none" xmlns="http://www.w3.org/2000/svg">
<g clip-path="url(#clip0)">
<path d="M48.0469 18.7507C49.1256 18.7507 50 17.8762 50 16.7975V9.37566C50 8.52761 49.4527 7.77654 48.6456 7.51658L25.5987 0.0947022C25.2095 -0.0305908 24.7906 -0.0305908 24.4013 0.0947022L1.35439 7.51658C0.547266 7.77654 0 8.52761 0 9.37566V16.7975C0 17.8762 0.874414 18.7507 1.95312 18.7507H4.88281V38.6725H1.95312C0.874414 38.6725 0 39.547 0 40.6257V48.0475C0 49.1262 0.874414 50.0007 1.95312 50.0007H48.0469C49.1256 50.0007 50 49.1262 50 48.0475V40.6257C50 39.547 49.1256 38.6725 48.0469 38.6725H45.1172V18.7507H48.0469ZM46.0938 42.5788V46.0944H3.90625V42.5788C5.28857 42.5788 45.569 42.5788 46.0938 42.5788ZM8.78906 38.6725V18.7507H12.3047V38.6725H8.78906ZM16.2109 38.6725V18.7507H19.3359V38.6725H16.2109ZM23.2422 38.6725V18.7507H26.7578V38.6725H23.2422ZM30.6641 38.6725V18.7507H33.7891V38.6725H30.6641ZM37.6953 38.6725V18.7507H41.2109V38.6725H37.6953ZM3.90625 14.8444V10.7986L25 4.00564L46.0938 10.7986V14.8444C45.876 14.8444 4.30586 14.8444 3.90625 14.8444Z" fill="black"/>
<path d="M25 12.793C26.3484 12.793 27.4414 11.6999 27.4414 10.3516C27.4414 9.00321 26.3484 7.91016 25 7.91016C23.6516 7.91016 22.5586 9.00321 22.5586 10.3516C22.5586 11.6999 23.6516 12.793 25 12.793Z" fill="black"/>
</g>
<defs>
<clipPath id="clip0">
<rect width="50" height="50" fill="white"/>
</clipPath>
</defs>
</svg>
