<svg width="50" height="50" viewBox="0 0 50 50" fill="none" xmlns="http://www.w3.org/2000/svg">
<g clip-path="url(#clip0)">
<path d="M20.3444 16.2402L25.4499 21.4098C25.7429 21.7073 26.0069 21.8691 26.5623 21.8752C26.9773 21.8752 27.3741 21.7104 27.667 21.4175L34.3747 14.7097V18.7503H37.4998V10.9378C37.4998 10.0741 36.8009 9.37524 35.9373 9.37524H28.1247V12.5003H32.1653L26.5699 18.0957L21.4643 12.926C21.1713 12.6285 20.773 12.4622 20.3566 12.4606C19.9735 12.4728 19.5417 12.6239 19.2472 12.9183L9.83252 22.333L12.042 24.5425L20.3444 16.2402Z" fill="#009DFF"/>
<path d="M45.3125 0H4.68753C2.1027 0 0 2.1027 0 4.68753V35.9375C0 38.5223 2.1027 40.625 4.68753 40.625H17.0975C17.0485 41.1339 16.9782 41.6131 16.8916 42.063C16.4112 44.5615 15.4353 46.1546 14.8925 46.8751H12.4999V50.0001H37.5V46.8751H35.1076C34.4672 46.0248 33.2232 43.9595 32.9025 40.625H45.3125C47.8973 40.625 50 38.5223 50 35.9375V4.68753C50 2.1026 47.8974 0 45.3125 0V0ZM4.68753 3.12502H45.3126C46.1747 3.12502 46.8751 3.82543 46.8751 4.68753V28.1251H3.12502V4.68753C3.12502 3.82543 3.82543 3.12502 4.68753 3.12502ZM31.4634 46.875H18.5366C19.285 45.4051 19.9968 43.3027 20.2162 40.6249H29.7838C30.0032 43.3028 30.7151 45.4053 31.4634 46.875ZM45.3125 37.5H4.68753C3.82543 37.5 3.12502 36.7996 3.12502 35.9375V31.25H46.8751V35.9375C46.875 36.7996 46.1747 37.5 45.3125 37.5Z" fill="#009DFF"/>
<path d="M26.1048 33.2704C26.7149 33.8805 26.7149 34.8699 26.1048 35.48C25.4946 36.0902 24.5053 36.0902 23.8951 35.48C23.285 34.8699 23.285 33.8805 23.8951 33.2704C24.5053 32.6602 25.4946 32.6602 26.1048 33.2704Z" fill="#009DFF"/>
</g>
<defs>
<clipPath id="clip0">
<rect width="50" height="50" fill="white"/>
</clipPath>
</defs>
</svg>
