<svg width="50" height="50" viewBox="0 0 50 50" fill="none" xmlns="http://www.w3.org/2000/svg">
<g clip-path="url(#clip0)">
<path d="M49.8349 19.6133L43.5851 7.11345C43.3653 6.67404 42.9503 6.36276 42.4666 6.27577L25.2792 3.15078C25.0961 3.11722 24.9039 3.11722 24.7207 3.15078L7.5335 6.27577C7.0498 6.36276 6.6348 6.67404 6.41504 7.11345L0.165069 19.6133C-0.127905 20.1977 -0.0241811 20.9042 0.422907 21.3803L23.8602 46.3801C24.1562 46.696 24.5682 46.8745 25 46.8745C25.4318 46.8745 25.8438 46.696 26.1398 46.3801L49.5771 21.3803C50.0242 20.9043 50.1279 20.1978 49.8349 19.6133ZM33.7297 21.8747L25 40.1286L16.2703 21.8747H33.7297ZM17.0636 18.7497L25 7.412L32.9364 18.7497H17.0636ZM28.4593 6.90463L39.8947 8.98386L35.8439 17.4541C35.8439 17.454 28.4593 6.90463 28.4593 6.90463ZM14.1561 17.454L10.1054 8.98375L21.5407 6.90453C21.5407 6.90463 14.1561 17.454 14.1561 17.454ZM11.3111 18.7497H4.09113L7.78145 11.3693L11.3111 18.7497ZM12.8057 21.8746L20.7587 38.5034L5.16951 21.8746H12.8057ZM37.1944 21.8746H44.8305L29.2413 38.5034L37.1944 21.8746ZM38.6889 18.7497L42.2186 11.3693L45.9089 18.7497H38.6889Z" fill="black"/>
</g>
<defs>
<clipPath id="clip0">
<rect width="50" height="50" fill="white"/>
</clipPath>
</defs>
</svg>
