<svg width="30" height="30" viewBox="0 0 30 30" fill="none" xmlns="http://www.w3.org/2000/svg">
<path d="M29.1405 14.653C28.663 14.653 28.281 15.035 28.281 15.5125V23.3308C28.281 25.4573 26.5492 27.1827 24.4291 27.1827H5.57088C3.4444 27.1827 1.71902 25.4509 1.71902 23.3308V15.3851C1.71902 14.9076 1.33701 14.5256 0.859508 14.5256C0.382003 14.5256 0 14.9076 0 15.3851V23.3308C0 26.4059 2.50212 28.9017 5.57088 28.9017H24.4291C27.5042 28.9017 30 26.3996 30 23.3308V15.5125C30 15.0413 29.618 14.653 29.1405 14.653Z" fill="#009DFF"/>
<path d="M14.3952 22.0766C14.5607 22.2422 14.7836 22.3313 15 22.3313C15.2165 22.3313 15.4393 22.2485 15.6049 22.0766L21.0675 16.614C21.405 16.2765 21.405 15.7354 21.0675 15.3979C20.7301 15.0605 20.1889 15.0605 19.8515 15.3979L15.8595 19.3962V1.95777C15.8595 1.48027 15.4775 1.09827 15 1.09827C14.5225 1.09827 14.1405 1.48027 14.1405 1.95777V19.3962L10.1422 15.3979C9.80478 15.0605 9.26361 15.0605 8.92617 15.3979C8.58874 15.7354 8.58874 16.2765 8.92617 16.614L14.3952 22.0766Z" fill="#009DFF"/>
</svg>
