<svg width="30" height="30" viewBox="0 0 30 30" fill="none" xmlns="http://www.w3.org/2000/svg">
<g clip-path="url(#clip0)">
<path d="M14.0659 8.89471L11.1597 11.8009C10.089 12.8716 9.01224 13.9423 7.94766 15.0252C7.69681 15.2822 7.50715 15.6248 7.43373 15.9613C7.04828 17.7295 6.67507 19.4976 6.30185 21.2658L6.09383 22.2447C5.99594 22.7219 6.12442 23.1992 6.44869 23.5234C6.69954 23.7743 7.04828 23.915 7.41537 23.915C7.51938 23.915 7.62339 23.9028 7.72741 23.8844L8.80422 23.658C10.5173 23.2971 12.2366 22.93 13.9497 22.5751C14.3474 22.4894 14.6839 22.312 14.9714 22.0245C19.7804 17.2094 24.5893 12.4005 29.3982 7.59765C29.7531 7.24279 29.9489 6.82063 29.9978 6.30058C30.0039 6.21492 29.9978 6.12927 29.9795 6.04973C29.9489 5.92737 29.9244 5.79888 29.8938 5.67652C29.8265 5.36449 29.7531 5.00963 29.6063 4.66701C28.7069 2.61128 27.214 1.1429 25.1705 0.316939C24.7606 0.151747 24.3262 0.0966825 23.9469 0.0477366L23.8429 0.0355001C23.2922 -0.0318005 22.7905 0.151747 22.3561 0.59226C19.6029 3.3577 16.8314 6.12927 14.0659 8.89471ZM23.641 1.51C23.6532 1.51 23.6593 1.51 23.6716 1.51L23.7756 1.52223C24.0937 1.55894 24.3874 1.59565 24.6199 1.69354C26.2841 2.36655 27.5077 3.56572 28.248 5.25436C28.3337 5.45014 28.3887 5.70099 28.4438 5.96408C28.4621 6.06197 28.4866 6.15986 28.505 6.25775C28.4805 6.36788 28.4377 6.4413 28.352 6.52084C23.537 11.3237 18.728 16.1387 13.9191 20.9476C13.8395 21.0272 13.7661 21.0639 13.656 21.0884C11.9368 21.4493 10.2237 21.8103 8.50442 22.1713L7.59892 22.361L7.77023 21.5595C8.14345 19.7974 8.51666 18.0292 8.89599 16.2672C8.90823 16.2121 8.95717 16.1265 9.01224 16.0653C10.0768 14.9885 11.1414 13.9178 12.2121 12.8532L15.1182 9.94705C17.8898 7.17549 20.6614 4.40392 23.4268 1.62624C23.5431 1.52835 23.5981 1.51 23.641 1.51Z" fill="#009DFF"/>
<path d="M2.38 6.6921H13.0624C13.4785 6.6921 13.815 6.3556 13.815 5.93956C13.815 5.52352 13.4785 5.18701 13.0624 5.18701H2.38C1.06457 5.18701 0 6.2577 0 7.56701V27.5981C0 28.9136 1.07069 29.9781 2.38 29.9781H22.405C23.7204 29.9781 24.785 28.9074 24.785 27.5981V17.3501C24.785 16.934 24.4485 16.5975 24.0325 16.5975C23.6164 16.5975 23.2799 16.934 23.2799 17.3501V27.5981C23.2799 28.0815 22.8822 28.4792 22.3989 28.4792H2.38C1.89665 28.4792 1.49897 28.0815 1.49897 27.5981V7.57313C1.49897 7.08978 1.89665 6.6921 2.38 6.6921Z" fill="#009DFF"/>
</g>
<defs>
<clipPath id="clip0">
<rect width="30" height="30" fill="white"/>
</clipPath>
</defs>
</svg>
