<svg width="50" height="50" viewBox="0 0 50 50" fill="none" xmlns="http://www.w3.org/2000/svg">
<path d="M40.625 29.1016H9.375C8.29629 29.1016 7.42188 29.976 7.42188 31.0547C7.42188 32.1334 8.29629 33.0078 9.375 33.0078H40.625C41.7037 33.0078 42.5781 32.1334 42.5781 31.0547C42.5781 29.976 41.7037 29.1016 40.625 29.1016Z" fill="black"/>
<path d="M44.1406 1.75781H5.85938C2.62852 1.75781 0 4.38633 0 7.61719V33.9844C0 37.2152 2.62852 39.8438 5.85938 39.8438H16.6812L15.2852 45.8467C15.1502 46.427 15.2875 47.0371 15.658 47.5037C16.0285 47.9702 16.5917 48.2422 17.1875 48.2422H32.8125C33.4083 48.2422 33.9715 47.9702 34.342 47.5036C34.7125 47.0371 34.8498 46.427 34.7148 45.8466L33.3188 39.8438H44.1406C47.3715 39.8438 50 37.2152 50 33.9844V7.61719C50 4.38633 47.3715 1.75781 44.1406 1.75781ZM19.647 44.3359L20.6916 39.8438H29.3083L30.353 44.3359H19.647ZM46.0938 33.9844C46.0938 35.0613 45.2176 35.9375 44.1406 35.9375C42.6669 35.9375 7.34307 35.9375 5.85938 35.9375C4.78242 35.9375 3.90625 35.0613 3.90625 33.9844V7.61719C3.90625 6.54023 4.78242 5.66406 5.85938 5.66406H44.1406C45.2176 5.66406 46.0938 6.54023 46.0938 7.61719V33.9844Z" fill="black"/>
</svg>
