<svg width="109" height="50" viewBox="0 0 109 50" fill="none" xmlns="http://www.w3.org/2000/svg">
<path d="M3.9339 14.9961H1.14956L0.706787 35.8829H5.2537L4.81944 16.648L3.9339 14.9961Z" fill="black"/>
<path d="M19.7634 19.7812C18.8779 19.7812 17.8646 19.9771 16.7322 20.3603C15.6082 20.7434 14.5268 21.2884 13.5306 21.9696L13.4454 22.0292L12.6876 20.3007H9.96289V35.8402H14.1692V24.9923L14.2033 24.9668C15.0122 24.4048 15.7615 23.9535 16.4341 23.6129C17.1153 23.2723 17.8476 23.102 18.6225 23.102C19.3888 23.102 19.9933 23.383 20.4191 23.945C20.8448 24.4985 21.0577 25.2818 21.0577 26.261V35.8402H25.264V26.0737C25.264 24.0983 24.8553 22.5315 24.0379 21.4246C23.2205 20.3347 21.79 19.7812 19.7634 19.7812Z" fill="black"/>
<path d="M39.5683 28.2784C38.5295 27.4269 37.2012 26.7117 35.6259 26.1582C34.8 25.8772 34.1614 25.6218 33.7186 25.3919C33.2588 25.1535 33.0204 24.8725 33.0204 24.5574C33.0204 24.1658 33.2162 23.8252 33.6079 23.5357C33.9911 23.2547 34.4764 23.1184 35.0554 23.1184C35.7792 23.1184 36.4774 23.2036 37.1416 23.3824C37.7887 23.5527 38.5295 23.8167 39.3469 24.1658L40.5901 21.4836C39.8493 21.0153 38.9382 20.6236 37.8824 20.3341C36.801 20.0361 35.8644 19.8828 35.115 19.8828C33.1907 19.8828 31.6495 20.3086 30.5256 21.143C29.4101 21.9775 28.8481 23.1355 28.8481 24.5915C28.8481 25.7495 29.359 26.7202 30.3638 27.478C31.377 28.2444 32.6713 28.883 34.204 29.3768C36.1624 29.9558 37.116 30.6711 37.116 31.5566C37.116 32.0249 36.818 32.3826 36.2305 32.638C35.66 32.8764 35.0299 33.0041 34.3487 33.0041C33.1737 33.0041 31.7517 32.655 30.1254 31.9568L28.8737 34.673C29.5464 35.1669 30.4319 35.5501 31.5133 35.8225C32.6202 36.1035 33.5994 36.2398 34.4168 36.2398C36.5881 36.2398 38.2655 35.814 39.4065 34.9796C40.5475 34.1451 41.118 32.9445 41.118 31.4034C41.118 30.1687 40.5986 29.1214 39.5683 28.2784Z" fill="black"/>
<path d="M54.4778 20.6148C53.422 20.1295 52.2299 19.874 50.9527 19.874C50.1949 19.874 49.1731 20.0188 47.9129 20.3083C46.6868 20.5893 45.7757 20.9043 45.2052 21.2534L46.3121 24.4039C46.9252 24.1399 47.6745 23.9015 48.5345 23.7057C49.4286 23.5013 50.263 23.3992 51.0038 23.3992C51.8638 23.3992 52.6472 23.6631 53.107 24.0974C53.5668 24.5401 53.7796 25.2724 53.7285 26.209L53.72 26.2857H50.4503C48.5941 26.2857 47.0955 26.7199 45.9971 27.5799C44.8987 28.4314 44.3452 29.6575 44.3452 31.2243C44.3452 32.7484 44.8306 33.9746 45.7927 34.8771C46.7549 35.7712 48.2195 36.231 50.1438 36.231C51.6169 36.231 53.0388 35.5413 54.3842 34.1789L54.4693 34.0938L55.2357 35.8393H57.9519V25.5875C57.9519 24.5061 57.6368 23.5269 57.0067 22.6584C56.3852 21.7899 55.5337 21.1002 54.4778 20.6148ZM53.7541 31.4542L53.7285 31.4797C52.6216 32.527 51.3955 33.055 50.0757 33.055C49.4541 33.055 48.9347 32.8761 48.526 32.5185C48.1173 32.1609 47.9129 31.7266 47.9129 31.2243C47.9129 30.6027 48.1428 30.0577 48.5941 29.615C49.0454 29.1722 49.6499 28.9423 50.3822 28.9423H53.7541V31.4542Z" fill="black"/>
<path d="M70.0005 19.874C68.4764 19.874 67.0544 20.3679 65.7516 21.3471L65.692 21.3897L64.7895 20.2912H62.6948V42.9236L66.8671 42.6086V35.4306L66.9863 35.4902C67.9996 35.9755 68.9702 36.2225 69.8728 36.2225C71.5758 36.2225 73.0659 35.8734 74.3005 35.1922C75.5352 34.511 76.4888 33.5403 77.1445 32.3057C77.7916 31.071 78.1237 29.6235 78.1237 28.0057C78.1237 25.5108 77.3914 23.5098 75.9439 22.0538C74.4964 20.6148 72.4954 19.874 70.0005 19.874ZM72.7168 31.4542C72.01 32.3482 71.0393 32.7995 69.8302 32.7995C68.8085 32.7995 67.8207 32.493 66.8926 31.8799L66.8586 31.8544V24.2847L66.8926 24.2592C67.8889 23.6291 68.8766 23.3055 69.8302 23.3055C71.0649 23.3055 72.0356 23.7483 72.7338 24.6168C73.4235 25.4853 73.7726 26.6263 73.7726 28.0227C73.7811 29.4106 73.4235 30.5686 72.7168 31.4542Z" fill="black"/>
<path d="M95.221 22.0708C93.7735 20.6148 91.781 19.874 89.2862 19.874C87.762 19.874 86.3401 20.3679 85.0288 21.3471L84.9692 21.3897L84.0751 20.2912H81.9805V42.9236L86.1527 42.6086V35.4306L86.2719 35.4902C87.2852 35.9755 88.2559 36.2225 89.1585 36.2225C90.8614 36.2225 92.3515 35.8734 93.5862 35.1922C94.8208 34.511 95.7745 33.5403 96.4301 32.3057C97.0772 31.071 97.4093 29.6235 97.4093 28.0057C97.4008 25.5279 96.6685 23.5269 95.221 22.0708ZM92.0024 31.4542C91.2957 32.3482 90.325 32.7995 89.1159 32.7995C88.0941 32.7995 87.1064 32.493 86.1783 31.8799L86.1442 31.8544V24.2847L86.1783 24.2592C87.1745 23.6291 88.1622 23.3055 89.1159 23.3055C90.3505 23.3055 91.3212 23.7483 92.0194 24.6168C92.7091 25.4853 93.0582 26.6263 93.0582 28.0227C93.0668 29.4106 92.7091 30.5686 92.0024 31.4542Z" fill="black"/>
<path d="M106.989 12.356L101.309 4.16476C99.3168 1.29527 95.9194 -0.288488 92.4453 0.0435893L4.95562 7.84316C4.41067 7.40039 3.74652 7.15346 3.01424 7.15346C2.19682 7.15346 1.45603 7.44296 0.885541 7.99642C0.306533 8.54989 0 9.28216 0 10.1166C0 10.9255 0.306533 11.6493 0.885541 12.2113C1.45603 12.7647 2.19682 13.0542 3.01424 13.0542C3.30375 13.0542 3.56771 13.0031 3.83167 12.935L15.7098 18.4611L16.3059 17.1839L5.2877 12.0495C5.78156 11.513 6.05403 10.8574 6.05403 10.1166C6.05403 9.78454 5.99443 9.46949 5.89225 9.17147L92.5731 1.44002C95.5362 1.15903 98.4483 2.51289 100.151 4.96515L105.831 13.1564C107.678 15.8215 107.798 19.3296 106.129 22.114L92.7093 44.559C90.521 48.2119 85.9656 49.6083 82.0998 47.8032L70.6985 42.4984L70.1025 43.7757L81.5038 49.0804C82.8406 49.702 84.237 50 85.625 50C88.9287 50 92.1133 48.297 93.9184 45.2828L107.338 22.8377C109.288 19.5851 109.151 15.4724 106.989 12.356ZM4.64909 10.1166C4.64909 10.5424 4.49582 10.8915 4.18929 11.181C4.09563 11.2661 4.00196 11.3342 3.89978 11.4024C3.64434 11.5556 3.35484 11.6408 3.02276 11.6408C2.56296 11.6408 2.18831 11.496 1.87326 11.1895C1.78811 11.1043 1.71148 11.0107 1.65187 10.917C1.49861 10.6871 1.42197 10.4231 1.42197 10.1251C1.42197 9.67384 1.56673 9.31622 1.87326 9.02672C1.91583 8.98414 1.95841 8.9586 2.00098 8.92454C2.29048 8.69464 2.62256 8.58395 3.02276 8.58395C3.48256 8.58395 3.86573 8.7287 4.18929 9.03523C4.28295 9.12038 4.35958 9.22256 4.41919 9.32474C4.57245 9.53761 4.64909 9.80157 4.64909 10.1166Z" fill="black"/>
</svg>
