<svg width="30" height="30" viewBox="0 0 30 30" fill="none" xmlns="http://www.w3.org/2000/svg">
<path d="M25.9343 15.759H14.2442V4.06893C14.2442 3.59654 13.8663 3.21863 13.3939 3.21863C6.01199 3.21863 0.00317383 9.22745 0.00317383 16.6093C0.00317383 23.9912 6.01199 30.0001 13.3939 30.0001C20.7758 30.0001 26.7846 23.9912 26.7846 16.6093C26.7846 16.1433 26.4004 15.759 25.9343 15.759ZM13.3939 28.2995C6.95047 28.2995 1.70378 23.0528 1.70378 16.6093C1.70378 10.4494 6.49068 5.38533 12.5436 4.95073V16.6093C12.5436 17.0817 12.9215 17.4597 13.3939 17.4597H25.0525C24.6179 23.5126 19.5539 28.2995 13.3939 28.2995Z" fill="#009DFF"/>
<path d="M29.9969 13.3466C29.9843 10.0966 28.7939 6.9662 26.646 4.52866C24.1014 1.65022 20.4483 0 16.6062 0C16.1338 0 15.7559 0.377913 15.7559 0.850304V13.3907C15.7559 13.8631 16.1338 14.241 16.6062 14.241H29.1466C29.619 14.241 29.9969 13.8631 29.9969 13.3907C29.9969 13.3781 29.9969 13.3655 29.9969 13.3466ZM17.4565 12.5467V1.7384C20.4924 1.95885 23.3393 3.36343 25.3674 5.6624C27.0681 7.58346 28.0758 10.0021 28.2648 12.5467H17.4565Z" fill="#009DFF"/>
</svg>
