<svg width="50" height="50" viewBox="0 0 50 50" fill="none" xmlns="http://www.w3.org/2000/svg">
<g clip-path="url(#clip0)">
<path d="M30.2293 35.5019C27.032 34.1736 23.7713 33.1576 21.5812 34.7037C20.29 35.6152 19.6918 37.1548 19.8031 39.2797C19.8781 40.71 20.3711 43.2469 22.832 44.1665C24.5488 44.8083 26.5523 44.3427 28.2317 43.5916C29.6554 42.9548 31.1019 41.998 31.9167 41.1536C33.0433 39.9863 33.0072 38.8277 32.8854 38.2409C32.6457 37.0867 31.7025 36.114 30.2293 35.5019ZM24.1994 40.5075C23.8017 40.3589 23.7198 39.3739 23.7041 39.0755C23.6598 38.2286 23.8115 37.939 23.8407 37.8918C23.895 37.867 24.2476 37.7362 25.2502 37.9382C26.071 38.1036 27.0933 38.4406 28.4506 38.9941C27.1891 39.9068 25.0789 40.8364 24.1994 40.5075Z" fill="#009DFF"/>
<path d="M25 0C11.1833 0 0 11.1813 0 25C0 38.8167 11.1813 50 25 50C38.8167 50 50 38.8187 50 25C50 11.1833 38.8187 0 25 0ZM25 3.90625C31.5777 3.90625 37.4404 6.88457 41.361 11.6832C37.2402 12.2124 32.7867 10.465 28.1688 9.63779C27.3728 9.49512 26.4398 9.36211 25.4408 9.58857C24.3631 9.83301 23.3625 10.4685 22.5472 11.4263C20.215 14.1665 20.4572 17.8149 21.0663 21.3496C21.5328 24.0571 21.8515 26.6213 20.6409 28.2404C20.3843 28.5838 20.3578 28.6199 19.768 28.5653C17.7068 28.3748 15.5521 27.0582 13.1809 24.5404C10.6393 21.842 8.44727 18.6704 6.10645 15.5979C9.5666 8.66104 16.7211 3.90625 25 3.90625ZM25 46.0938C13.342 46.0938 3.90625 36.6594 3.90625 25C3.90625 23.2838 4.11094 21.5992 4.50664 19.9731C6.3583 22.4611 8.20068 24.9503 10.3371 27.2187C13.39 30.4602 16.3572 32.1729 19.4084 32.455C21.2848 32.6283 22.646 32.0821 23.7694 30.5795C26.0867 27.4803 25.3821 23.3917 24.9158 20.6862C24.468 18.0878 24.2315 15.4741 25.5219 13.9581C25.7782 13.6568 26.0636 13.4527 26.3047 13.3981C26.5911 13.3331 27.0614 13.4079 27.48 13.4828C32.6534 14.4097 37.9582 16.6632 43.6938 15.2091C44.7475 17.215 45.4681 19.3812 45.8274 21.6389C44.0069 22.553 41.4695 23.3193 38.4237 22.9033C34.5191 22.3703 31.7047 23.2973 30.7036 25.4461C29.4154 28.2122 31.7729 31.1351 34.0223 33.1735C36.5701 35.4825 39.3783 36.7853 41.7731 37.7941C37.8292 42.9432 31.7558 46.0938 25 46.0938ZM36.6456 30.2792C34.6706 28.4895 34.2543 27.3952 34.254 27.0954C34.451 26.9199 35.5016 26.4469 37.8957 26.7737C41.1114 27.2124 43.8833 26.653 46.0774 25.7987C45.9647 28.8447 45.2099 31.7772 43.8754 34.4393C41.5359 33.467 38.9214 32.3417 36.6456 30.2792Z" fill="#009DFF"/>
</g>
<defs>
<clipPath id="clip0">
<rect width="50" height="50" fill="white"/>
</clipPath>
</defs>
</svg>
