<svg width="50" height="50" viewBox="0 0 50 50" fill="none" xmlns="http://www.w3.org/2000/svg">
<path d="M34.3906 0H14.8594C11.6285 0 9 2.62852 9 5.85938C9 7.48096 9 42.6974 9 44.1406C9 47.3715 11.6285 50 14.8594 50H34.3906C37.6215 50 40.25 47.3715 40.25 44.1406C40.25 43.1764 40.25 6.88896 40.25 5.85938C40.25 2.62852 37.6215 0 34.3906 0ZM36.3438 44.1406C36.3438 45.2176 35.4676 46.0938 34.3906 46.0938H14.8594C13.7824 46.0938 12.9062 45.2176 12.9062 44.1406V37.0117H36.3438V44.1406ZM36.3438 33.1055H12.9062V11.3281H36.3438V33.1055ZM36.3438 7.42188H12.9062V5.85938C12.9062 4.78242 13.7824 3.90625 14.8594 3.90625H34.3906C35.4676 3.90625 36.3438 4.78242 36.3438 5.85938V7.42188Z" fill="#009DFF"/>
<path d="M26.4648 39.6484H23.5352C22.4564 39.6484 21.582 40.5229 21.582 41.6016C21.582 42.6803 22.4564 43.5547 23.5352 43.5547H26.4648C27.5436 43.5547 28.418 42.6803 28.418 41.6016C28.418 40.5229 27.5436 39.6484 26.4648 39.6484Z" fill="#009DFF"/>
</svg>
