<svg width="50" height="50" viewBox="0 0 50 50" fill="none" xmlns="http://www.w3.org/2000/svg">
<g clip-path="url(#clip0)">
<path d="M49.6955 46.9994L40.6056 32.6878C40.9486 18.0647 33.5291 5.71852 26.1457 0.371069C25.4622 -0.124048 24.5378 -0.12395 23.8543 0.370971C16.7083 5.54928 9.05202 17.7215 9.39626 32.6847L0.304476 46.9994C-0.0775548 47.6009 -0.101774 48.3627 0.24139 48.9871C0.584651 49.6116 1.24071 49.9997 1.9532 49.9997C4.35974 49.9997 45.5832 49.9997 48.0469 49.9997C48.7594 49.9997 49.4155 49.6116 49.7586 48.9872C50.1018 48.3627 50.0776 47.6009 49.6955 46.9994ZM5.5075 46.0934L9.9738 39.0614C10.3439 41.4217 10.9008 43.8445 11.5576 46.0934H5.5075ZM36.6786 33.2732C36.5098 37.6119 35.6645 41.934 34.359 46.0933H15.641C14.3309 41.9195 13.4798 37.5546 13.318 33.2002C13.3175 33.186 13.3166 33.1719 13.3161 33.1577C12.8803 21.2301 17.7996 10.947 25.0024 4.48981C32.2027 10.9312 37.1532 21.2756 36.6786 33.2732ZM38.4425 46.0934C39.1193 43.777 39.6612 41.39 40.0263 39.0614L44.4926 46.0934H38.4425Z" fill="#009DFF"/>
<path d="M18.1641 30.8594C18.1641 34.6287 21.2307 37.6953 25 37.6953C28.7693 37.6953 31.8359 34.6287 31.8359 30.8594C31.8359 27.09 28.7693 24.0234 25 24.0234C21.2307 24.0234 18.1641 27.09 18.1641 30.8594ZM27.9297 30.8594C27.9297 32.4748 26.6154 33.789 25 33.789C23.3846 33.789 22.0703 32.4748 22.0703 30.8594C22.0703 29.2439 23.3846 27.9297 25 27.9297C26.6154 27.9297 27.9297 29.2439 27.9297 30.8594Z" fill="#009DFF"/>
</g>
<defs>
<clipPath id="clip0">
<rect width="50" height="50" fill="white"/>
</clipPath>
</defs>
</svg>
