<svg width="50" height="50" viewBox="0 0 50 50" fill="none" xmlns="http://www.w3.org/2000/svg">
<g clip-path="url(#clip0)">
<path d="M48.4375 21.875H46.875V17.1875C46.875 15.1531 45.5648 13.435 43.75 12.7878V4.68753C43.7501 2.1027 41.6474 0 39.0625 0H7.81255C5.22762 0 3.12502 2.1027 3.12502 4.68753V12.7878C1.31014 13.435 0 15.1531 0 17.1875V45.3125C0 47.8973 2.1027 50 4.68753 50H42.1876C44.7724 50 46.8751 47.8973 46.8751 45.3125V40.6249H48.4376C49.3013 40.6249 50.0001 39.9261 50.0001 39.0624V23.4375C50 22.5739 49.3012 21.875 48.4375 21.875ZM39.0625 3.12502C39.9246 3.12502 40.625 3.82543 40.625 4.68753V6.25004C38.9023 6.25004 37.5 4.84775 37.5 3.12502H39.0625ZM6.25004 4.68753C6.25004 3.82543 6.95045 3.12502 7.81255 3.12502H9.37506C9.37506 4.84775 7.97277 6.25004 6.25004 6.25004V4.68753ZM12.5 3.12502H34.375C34.375 6.57195 37.178 9.37506 40.625 9.37506V12.5001H6.25004V9.37495C9.69697 9.37495 12.5 6.57195 12.5 3.12502ZM43.7501 45.3125C43.7501 46.1746 43.0497 46.875 42.1876 46.875H4.68753C3.82543 46.875 3.12502 46.1746 3.12502 45.3125V17.1875C3.12502 16.3254 3.82543 15.625 4.68753 15.625H42.1876C43.0497 15.625 43.7501 16.3254 43.7501 17.1875V21.875H37.5C32.3304 21.875 28.1251 26.0803 28.1251 31.25C28.1251 36.4196 32.3304 40.6249 37.5 40.6249H43.7501V45.3125ZM46.875 37.5H37.5C34.0531 37.5 31.25 34.697 31.25 31.25C31.25 27.8031 34.053 24.9999 37.5 24.9999H46.875V37.5Z" fill="#009DFF"/>
</g>
<defs>
<clipPath id="clip0">
<rect width="50" height="50" fill="white"/>
</clipPath>
</defs>
</svg>
